<svg xmlns="http://www.w3.org/2000/svg" xmlns:xlink="http://www.w3.org/1999/xlink" viewBox="0 0 1538.93 1542.15"><defs><style>.cls-1{fill:url(#Degradado_sin_nombre_10);}.cls-2{fill:url(#Degradado_sin_nombre_10-2);}</style><linearGradient id="Degradado_sin_nombre_10" x1="532.22" y1="370.07" x2="1538.93" y2="370.07" gradientUnits="userSpaceOnUse"><stop offset="0" stop-color="#dd352b"/><stop offset="0.2" stop-color="#da342a"/><stop offset="0.35" stop-color="#d13229"/><stop offset="0.47" stop-color="#c22e26"/><stop offset="0.58" stop-color="#ac2921"/><stop offset="0.68" stop-color="#90221c"/><stop offset="0.78" stop-color="#6d1a15"/><stop offset="0.87" stop-color="#44100d"/><stop offset="0.96" stop-color="#160504"/><stop offset="1"/></linearGradient><linearGradient id="Degradado_sin_nombre_10-2" x1="647.3" y1="1003.7" x2="1054.06" y2="1003.7" xlink:href="#Degradado_sin_nombre_10"/></defs><g id="Capa_2" data-name="Capa 2"><g id="Capa_6" data-name="Capa 6"><ellipse cx="1250.48" cy="161.12" rx="158.53" ry="161.12"/><path class="cls-1" d="M1533.77,161.12s-1.63,314.56-268.09,309.37a97.33,97.33,0,0,1-68-29.74c-49.28-50.89-172.89-160.83-345.18-190.85,0,0-187.66-23-320.31,55.9,0,0,433.55-74.26,559.73,175,0,0,90.59,186.74,300.89,45.35C1392.84,526.11,1571.18,414.31,1533.77,161.12Z"/><path class="cls-2" d="M1003.37,1542.15C999.44,1538.39,1231,611.54,735.93,471,631.81,441.46,621.55,532.46,694,582c6.11,4.18,7.56,2.57,15.27,6.68C709.26,588.69,1010,742.05,1003.37,1542.15Z"/><path d="M758.7,407.73S1871.68,1101.46,0,629.65c0,0,911.25,476.93,1188.21,234.44,29.22-25.59,39.75-64.83,32.7-103.36C1211.66,710.25,1192.24,628,758.7,407.73Z"/></g></g></svg>